<svg width="32" height="32" viewBox="0 0 32 32" fill="none" xmlns="http://www.w3.org/2000/svg">
  <!-- Background circle -->
  <circle cx="16" cy="16" r="16" fill="url(#gradient)"/>
  
  <!-- Ticket icon -->
  <path d="M8 6h16c1.1 0 2 .9 2 2v2c0 .55-.45 1-1 1s-1-.45-1-1V8H8v16h16v-2c0-.55.45-1 1-1s1 .45 1 1v2c0 1.1-.9 2-2 2H8c-1.1 0-2-.9-2-2V8c0-1.1.9-2 2-2z" fill="white"/>
  
  <!-- Ticket perforations -->
  <circle cx="16" cy="8" r="1" fill="url(#gradient)"/>
  <circle cx="16" cy="24" r="1" fill="url(#gradient)"/>
  
  <!-- Shield icon -->
  <path d="M20 10l-4-4-4 4v6c0 2.21 1.79 4 4 4s4-1.79 4-4v-6z" fill="#3B82F6"/>
  
  <!-- Shield checkmark -->
  <path d="M14 18l2-2 4-4" stroke="white" stroke-width="1.5" stroke-linecap="round" stroke-linejoin="round" fill="none"/>
  
  <defs>
    <linearGradient id="gradient" x1="0%" y1="0%" x2="100%" y2="100%">
      <stop offset="0%" style="stop-color:#3B82F6;stop-opacity:1" />
      <stop offset="100%" style="stop-color:#1E40AF;stop-opacity:1" />
    </linearGradient>
  </defs>
</svg>
